<svg width="330" height="42" viewBox="0 0 330 42" fill="none" xmlns="http://www.w3.org/2000/svg">
<path d="M10.8073 42C6.90148 42 4.11434 40.9893 2.44585 38.9679C0.815284 36.9091 0 33.6898 0 29.3102C0 27.9251 0.0758404 26.4652 0.227521 24.9305C0.417122 23.3957 0.644644 21.7861 0.910085 20.1016C1.55473 16.0214 2.54065 12.484 3.86786 9.48931C5.23299 6.49465 7.07212 4.1738 9.38525 2.52674C11.6984 0.842246 14.6372 0 18.2017 0C21.1974 0 23.738 0.187166 25.8237 0.561497C27.9093 0.898395 29.7674 1.29144 31.3979 1.74064L31.0566 4.21123C29.464 3.87433 27.5869 3.57487 25.4255 3.31283C23.264 3.0508 20.894 2.91979 18.3155 2.91979C15.3577 2.91979 12.9497 3.63102 11.0917 5.05348C9.23357 6.47594 7.75468 8.51604 6.655 11.1738C5.59323 13.8316 4.75899 17.107 4.15226 21C3.62138 24.369 3.35594 27.1952 3.35594 29.4786C3.35594 32.7727 4.00058 35.1872 5.28987 36.7219C6.61708 38.2567 8.77853 39.0241 11.7742 39.0241C12.7601 39.0241 13.8219 38.9305 14.9595 38.7433C16.135 38.5562 17.2916 38.3316 18.4292 38.0695C19.6047 37.8075 20.6665 37.5455 21.6145 37.2834C22.5625 36.984 23.302 36.7219 23.8328 36.4973L25.9943 22.9652H15.1302L15.4714 20.4947C16.4953 20.3449 17.7846 20.2513 19.3393 20.2139C20.932 20.139 22.8659 20.1016 25.1411 20.1016C25.5961 20.1016 26.0891 20.1203 26.62 20.1578C27.1509 20.1578 27.6628 20.1765 28.1558 20.2139C28.6866 20.2139 29.1796 20.2326 29.6346 20.2701L26.2218 41.6631H23.8328L23.7191 38.7433C23.2261 38.9679 22.4867 39.2674 21.5008 39.6417C20.5527 40.016 19.4531 40.3904 18.2017 40.7647C16.9883 41.1016 15.7369 41.4011 14.4476 41.6631C13.1583 41.8877 11.9449 42 10.8073 42Z" fill="white"/>
<path d="M31.1477 41.6631L52.7623 0.449199H57.0283L64.8209 41.6631H61.4081L58.9622 28.9171H41.2724L34.5606 41.6631H31.1477ZM42.6376 25.9973H58.564L54.4118 3.48129L42.6376 25.9973Z" fill="white"/>
<path d="M69.1962 41.6631L80.5723 0.449199H83.6438L89.73 36.9465L107.647 0.449199H110.719L108.956 41.6631H105.713L107.363 6.51337L90.5832 41.6631H87.5117L81.9943 6.62567L72.4953 41.6631H69.1962Z" fill="white"/>
<path d="M121.091 42C120.105 42 119.138 41.8877 118.19 41.6631C117.242 41.4759 116.389 41.1016 115.63 40.5401C114.91 39.9786 114.36 39.1738 113.981 38.1257C113.639 37.0401 113.601 35.6551 113.867 33.9706L118.019 8.14171C118.36 6.15775 118.986 4.60428 119.896 3.48129C120.806 2.35829 121.887 1.57219 123.138 1.12299C124.428 0.636364 125.774 0.411766 127.177 0.449199C129.983 0.486631 132.789 0.542782 135.595 0.617649C138.439 0.692514 141.283 0.786097 144.127 0.898398L143.672 3.42513H127.347C125.717 3.42513 124.371 3.8369 123.309 4.66043C122.247 5.48396 121.546 6.90642 121.204 8.92781L119.498 19.6524L138.61 20.0455L138.212 22.4599L118.986 22.6845L117.28 33.5775C117.052 35.0749 117.128 36.2166 117.507 37.0027C117.886 37.7888 118.474 38.3128 119.27 38.5749C120.105 38.8369 121.072 38.9679 122.171 38.9679H138.098L137.643 41.5508C134.95 41.6257 132.22 41.7005 129.452 41.7754C126.684 41.8503 123.897 41.9251 121.091 42Z" fill="white"/>
<path d="M143.117 41.6631L148.236 9.54545C148.691 7 149.488 5.05348 150.625 3.70588C151.763 2.32085 153.109 1.38503 154.664 0.898398C156.219 0.374333 157.792 0.112301 159.385 0.112301C162.646 0.112301 165.642 0.187167 168.372 0.336897C171.14 0.449198 173.87 0.617647 176.563 0.842245L175.482 7.80481H160.636C159.271 7.80481 158.266 8.14171 157.622 8.81551C156.977 9.45187 156.541 10.4251 156.313 11.7353L155.289 18.4171L171.045 18.8663L169.965 25.4358L154.095 25.8289L151.535 41.6631H143.117Z" fill="white"/>
<path d="M173.801 41.6631L180.456 0.112301H188.875L182.22 41.6631H173.801Z" fill="white"/>
<path d="M187.877 41.6631L194.532 0.112301H201.301L214.497 27.5134L218.934 0.112301H227.352L220.64 41.6631H213.928L200.732 14.2059L196.295 41.6631H187.877Z" fill="white"/>
<path d="M225.893 41.6631L232.548 0.112301H248.532C252.21 0.112301 255.073 0.711232 257.121 1.90909C259.206 3.10695 260.647 4.79144 261.444 6.96257C262.278 9.09626 262.695 11.6417 262.695 14.5989C262.695 15.7968 262.638 17.0321 262.524 18.3048C262.411 19.5775 262.24 20.869 262.012 22.1791C261.482 25.5481 260.666 28.4679 259.567 30.9385C258.505 33.3717 257.14 35.393 255.471 37.0027C253.803 38.5749 251.831 39.754 249.556 40.5401C247.28 41.2888 244.664 41.6631 241.706 41.6631H225.893ZM235.506 34.1952H242.559C244.19 34.1952 245.612 33.8957 246.825 33.2968C248.077 32.6979 249.139 31.8369 250.011 30.7139C250.921 29.5535 251.66 28.1497 252.229 26.5027C252.798 24.8556 253.253 22.9465 253.594 20.7754C253.784 19.5027 253.935 18.361 254.049 17.3503C254.163 16.3396 254.22 15.5348 254.22 14.9358C254.22 13.1765 253.973 11.7727 253.48 10.7246C252.987 9.63904 252.172 8.85294 251.035 8.36631C249.897 7.84225 248.361 7.58021 246.427 7.58021H239.772L235.506 34.1952Z" fill="white"/>
<path d="M273.76 42C272.698 42 271.598 41.8877 270.461 41.6631C269.323 41.4385 268.28 40.9893 267.332 40.3155C266.384 39.6417 265.664 38.6872 265.171 37.4519C264.678 36.2166 264.602 34.607 264.943 32.623L268.64 9.65775C269.02 7.2246 269.74 5.31551 270.802 3.93048C271.901 2.54545 273.229 1.57219 274.783 1.0107C276.376 0.411766 278.082 0.112301 279.903 0.112301C282.747 0.112301 285.572 0.187167 288.378 0.336897C291.222 0.449198 294.123 0.617647 297.081 0.842245L295.943 7.80481H281.097C279.77 7.80481 278.765 8.12299 278.082 8.75936C277.4 9.39572 276.945 10.3877 276.717 11.7353L275.864 17.1257L291.62 17.631L290.539 24.2005L274.67 24.6497L273.76 30.4332C273.608 31.3316 273.646 32.0615 273.873 32.623C274.101 33.1845 274.48 33.5963 275.011 33.8583C275.58 34.0829 276.281 34.1952 277.116 34.1952H291.734L290.653 41.1578C287.961 41.3824 285.23 41.5695 282.462 41.7192C279.694 41.869 276.793 41.9626 273.76 42Z" fill="white"/>
<path d="M295.872 41.6631L302.527 0.112301H318.624C320.33 0.112301 321.885 0.299467 323.288 0.673798C324.691 1.04813 325.886 1.64706 326.872 2.47059C327.895 3.25668 328.673 4.30481 329.204 5.61497C329.735 6.92513 330 8.53476 330 10.4438C330 10.9679 329.962 11.5294 329.886 12.1283C329.848 12.7273 329.772 13.3636 329.659 14.0374C329.393 16.0214 328.919 17.6684 328.237 18.9786C327.592 20.2888 326.853 21.3369 326.018 22.123C325.184 22.9091 324.35 23.508 323.516 23.9198C322.681 24.3316 321.961 24.6685 321.354 24.9305L326.473 41.6631H317.884L313.618 26.2219C313.163 26.2219 312.633 26.2219 312.026 26.2219C311.457 26.2219 310.85 26.2219 310.206 26.2219C309.599 26.2219 308.992 26.2219 308.385 26.2219C307.817 26.1845 307.286 26.1658 306.793 26.1658L304.29 41.6631H295.872ZM307.817 19.5963H314.927C316.178 19.5963 317.221 19.4091 318.055 19.0348C318.889 18.6604 319.553 18.0428 320.046 17.1818C320.577 16.2834 320.956 15.0481 321.184 13.4759C321.259 13.139 321.297 12.8209 321.297 12.5214C321.335 12.1845 321.354 11.885 321.354 11.623C321.354 10.6123 321.165 9.8262 320.785 9.26471C320.444 8.66578 319.932 8.23529 319.25 7.97326C318.605 7.71123 317.828 7.58021 316.918 7.58021H309.751L307.817 19.5963Z" fill="white"/>
</svg>
